<?xml version="1.0" encoding="UTF-8" standalone="no"?>
<!DOCTYPE svg PUBLIC "-//W3C//DTD SVG 1.1//EN"
 "http://www.w3.org/Graphics/SVG/1.1/DTD/svg11.dtd">
<!-- Generated by graphviz version 2.38.0 (20140413.2041)
 -->
<!-- Title: G Pages: 1 -->
<svg width="273pt" height="150pt"
 viewBox="0.00 0.00 273.00 150.00" xmlns="http://www.w3.org/2000/svg" xmlns:xlink="http://www.w3.org/1999/xlink">
<g id="graph0" class="graph" transform="scale(1 1) rotate(0) translate(4 146)">
<title>G</title>
<polygon fill="white" stroke="none" points="-4,4 -4,-146 269,-146 269,4 -4,4"/>
<g id="clust1" class="cluster"><title>cluster_Global</title>
<path fill="none" stroke="gray" d="M20,-8C20,-8 245,-8 245,-8 251,-8 257,-14 257,-20 257,-20 257,-122 257,-122 257,-128 251,-134 245,-134 245,-134 20,-134 20,-134 14,-134 8,-128 8,-122 8,-122 8,-20 8,-20 8,-14 14,-8 20,-8"/>
<text text-anchor="middle" x="132.5" y="-121.2" font-family="Times New Roman,serif" font-size="11.00" fill="gray">Global</text>
</g>
<!-- \\ErrorPage -->
<g id="node1" class="node"><title>\\ErrorPage</title>
<polygon fill="none" stroke="black" points="249,-106 172,-106 172,-70 249,-70 249,-106"/>
<text text-anchor="middle" x="210.5" y="-85.2" font-family="Courier,monospace" font-size="11.00">ErrorPage</text>
</g>
<!-- \\View -->
<g id="node3" class="node"><title>\\View</title>
<polygon fill="none" stroke="black" points="100,-79 16,-79 16,-43 100,-43 100,-79"/>
<text text-anchor="start" x="24" y="-64.2" font-family="Courier,monospace" font-size="11.00">«abstract»</text>
<text text-anchor="start" x="44" y="-52.2" font-family="Courier,monospace" font-size="11.00">View</text>
</g>
<!-- \\ErrorPage&#45;&gt;\\View -->
<g id="edge1" class="edge"><title>\\ErrorPage&#45;&gt;\\View</title>
<path fill="none" stroke="black" d="M171.911,-81.2564C153.216,-77.9025 130.343,-73.7991 110.084,-70.1646"/>
<polygon fill="none" stroke="black" points="110.534,-66.6894 100.073,-68.3685 109.298,-73.5794 110.534,-66.6894"/>
</g>
<!-- \\Page -->
<g id="node2" class="node"><title>\\Page</title>
<polygon fill="none" stroke="black" points="237.5,-52 183.5,-52 183.5,-16 237.5,-16 237.5,-52"/>
<text text-anchor="middle" x="210.5" y="-31.2" font-family="Courier,monospace" font-size="11.00">Page</text>
</g>
<!-- \\Page&#45;&gt;\\View -->
<g id="edge2" class="edge"><title>\\Page&#45;&gt;\\View</title>
<path fill="none" stroke="black" d="M183.285,-38.703C163.152,-42.315 134.724,-47.415 110.137,-51.826"/>
<polygon fill="none" stroke="black" points="109.449,-48.3934 100.224,-53.6043 110.685,-55.2834 109.449,-48.3934"/>
</g>
</g>
</svg>
