<?xml version="1.0" encoding="UTF-8" standalone="no"?>
<!DOCTYPE svg PUBLIC "-//W3C//DTD SVG 1.1//EN"
 "http://www.w3.org/Graphics/SVG/1.1/DTD/svg11.dtd">
<!-- Generated by graphviz version 2.38.0 (20140413.2041)
 -->
<!-- Title: G Pages: 1 -->
<svg width="178pt" height="258pt"
 viewBox="0.00 0.00 178.00 258.00" xmlns="http://www.w3.org/2000/svg" xmlns:xlink="http://www.w3.org/1999/xlink">
<g id="graph0" class="graph" transform="scale(1 1) rotate(0) translate(4 254)">
<title>G</title>
<polygon fill="white" stroke="none" points="-4,4 -4,-254 174,-254 174,4 -4,4"/>
<g id="clust1" class="cluster"><title>cluster_Global</title>
<path fill="none" stroke="gray" d="M20,-8C20,-8 150,-8 150,-8 156,-8 162,-14 162,-20 162,-20 162,-230 162,-230 162,-236 156,-242 150,-242 150,-242 20,-242 20,-242 14,-242 8,-236 8,-230 8,-230 8,-20 8,-20 8,-14 14,-8 20,-8"/>
<text text-anchor="middle" x="85" y="-229.2" font-family="Times New Roman,serif" font-size="11.00" fill="gray">Global</text>
</g>
<!-- \\administratorModel -->
<g id="node1" class="node"><title>\\administratorModel</title>
<polygon fill="none" stroke="black" points="154,-214 16,-214 16,-178 154,-178 154,-214"/>
<text text-anchor="middle" x="85" y="-193.2" font-family="Courier,monospace" font-size="11.00">administratorModel</text>
</g>
<!-- \\CourseModel -->
<g id="node2" class="node"><title>\\CourseModel</title>
<polygon fill="none" stroke="black" points="130.5,-160 39.5,-160 39.5,-124 130.5,-124 130.5,-160"/>
<text text-anchor="middle" x="85" y="-139.2" font-family="Courier,monospace" font-size="11.00">CourseModel</text>
</g>
<!-- \\StudentModel -->
<g id="node3" class="node"><title>\\StudentModel</title>
<polygon fill="none" stroke="black" points="134,-106 36,-106 36,-70 134,-70 134,-106"/>
<text text-anchor="middle" x="85" y="-85.2" font-family="Courier,monospace" font-size="11.00">StudentModel</text>
</g>
<!-- \\userModel -->
<g id="node4" class="node"><title>\\userModel</title>
<polygon fill="none" stroke="black" points="123.5,-52 46.5,-52 46.5,-16 123.5,-16 123.5,-52"/>
<text text-anchor="middle" x="85" y="-31.2" font-family="Courier,monospace" font-size="11.00">userModel</text>
</g>
</g>
</svg>
